<?xml version="1.0" encoding="iso-8859-1"?>
<!-- Generator: Adobe Illustrator 19.0.0, SVG Export Plug-In . SVG Version: 6.00 Build 0)  -->
<svg version="1.1" id="Capa_1" xmlns="http://www.w3.org/2000/svg" xmlns:xlink="http://www.w3.org/1999/xlink" x="0px" y="0px"
	 viewBox="0 0 512 512" style="enable-background:new 0 0 512 512;" xml:space="preserve">
<path style="fill:#707487;" d="M281.735,501.611v-26.849h-51.469v26.849c0,5.714,4.606,10.389,10.237,10.389h30.995
	C277.129,512,281.735,507.325,281.735,501.611z"/>
<path style="fill:#5B5D6E;" d="M256,501.611v-26.849h-25.735v26.849c0,5.714,4.606,10.389,10.237,10.389h25.735
	C260.607,512,256,507.325,256,501.611z"/>
<path style="fill:#FFC850;" d="M200.31,366.743v42.676h111.381v-41.983c0-15.105,7.726-29.076,20.332-37.108
	c40.332-25.701,67.144-71.244,67.144-123.145c0-79.936-63.603-144.796-142.248-145.297
	c-78.991-0.503-144.085,65.129-144.085,145.299c0,52.232,27.157,98.026,67.921,123.635
	C192.979,338.499,200.31,352.153,200.31,366.743z"/>
<path style="fill:#F9B428;" d="M201.36,330.819c-40.764-25.608-67.921-71.402-67.921-123.635
	c-0.001-76.336,59.018-139.489,132.856-144.921c-3.1-0.223-6.225-0.358-9.376-0.378c-78.991-0.503-144.085,65.129-144.085,145.299
	c0,52.232,27.157,98.026,67.921,123.635c12.223,7.679,19.555,21.334,19.555,35.923v42.676h20.606v-42.676
	C220.916,352.153,213.585,338.499,201.36,330.819z"/>
<g>
	<path style="fill:#E4EAF8;" d="M312.815,441.583H199.186c-6.6,0-12-5.4-12-12v-11.208c0-6.6,5.4-12,12-12h113.629
		c6.6,0,12,5.4,12,12v11.208C324.815,436.183,319.415,441.583,312.815,441.583z"/>
	<path style="fill:#E4EAF8;" d="M312.815,476.792H199.186c-6.6,0-12-5.4-12-12v-11.208c0-6.6,5.4-12,12-12h113.629
		c6.6,0,12,5.4,12,12v11.208C324.815,471.392,319.415,476.792,312.815,476.792z"/>
</g>
<g>
	<path style="fill:#D8DCE5;" d="M312.815,423.978H199.186c-5.446,0-10.065-3.734-11.518-8.802c-0.308,1.074-0.482,2.205-0.482,3.377
		v10.85c0,6.698,5.4,12.179,12,12.179h113.629c6.6,0,12-5.48,12-12.179v-10.85c0-1.172-0.174-2.303-0.482-3.377
		C322.88,420.244,318.26,423.978,312.815,423.978z"/>
	<path style="fill:#D8DCE5;" d="M312.815,459.187H199.186c-5.446,0-10.065-3.734-11.518-8.802c-0.308,1.074-0.482,2.205-0.482,3.377
		v10.85c0,6.698,5.4,12.179,12,12.179h113.629c6.6,0,12-5.481,12-12.179v-10.85c0-1.172-0.174-2.302-0.482-3.377
		C322.88,455.452,318.26,459.187,312.815,459.187z"/>
</g>
<path style="fill:#707487;" d="M354.672,191.115h-28.431c-1.806-7.837-4.844-15.191-8.909-21.836l20.102-20.402
	c1.222-1.24,1.222-3.25,0-4.489l-18.901-19.183c-1.222-1.239-3.202-1.239-4.424,0l-20.103,20.402
	c-6.547-4.126-13.792-7.208-21.515-9.041v-28.854c0-1.753-1.4-3.174-3.128-3.174h-26.73c-1.727,0-3.128,1.421-3.128,3.174v28.854
	c-7.723,1.834-14.968,4.916-21.516,9.042l-20.102-20.402c-1.222-1.239-3.202-1.239-4.424,0l-18.901,19.183
	c-1.221,1.239-1.221,3.249,0,4.489l20.102,20.402c-4.065,6.644-7.102,13.997-8.909,21.836h-28.431c-1.727,0-3.127,1.421-3.127,3.174
	v27.128c0,1.753,1.4,3.174,3.127,3.174h28.431c1.806,7.837,4.843,15.19,8.909,21.835l-20.102,20.402
	c-1.221,1.24-1.221,3.249,0,4.489l18.901,19.182c1.222,1.24,3.202,1.24,4.424,0l20.102-20.402
	c6.547,4.126,13.792,7.209,21.516,9.042v28.855c0,1.753,1.4,3.174,3.128,3.174h26.73c1.728,0,3.128-1.421,3.128-3.174V279.14
	c7.722-1.833,14.968-4.916,21.515-9.042l20.103,20.402c1.222,1.24,3.202,1.24,4.424,0l18.901-19.182c1.222-1.24,1.222-3.249,0-4.489
	l-20.102-20.402c4.065-6.644,7.103-13.997,8.909-21.835h28.431c1.728,0,3.128-1.421,3.128-3.174V194.29
	C357.8,192.537,356.4,191.115,354.672,191.115z M256,241.02c-18.049,0-32.679-14.848-32.679-33.166
	c0-18.317,14.63-33.166,32.679-33.166c18.048,0,32.679,14.848,32.679,33.166C288.679,226.17,274.049,241.02,256,241.02z"/>
<g>
	<path style="fill:#5B5D6E;" d="M194.668,169.279c-4.065,6.644-7.102,13.997-8.909,21.836h16.786c1.867,0,3.494-1.267,3.998-3.091
		c1.662-6.014,4.057-11.716,7.09-16.998c0.595-1.035,0.45-2.341-0.385-3.188l-18.682-18.96c-1.221-1.24-1.221-3.25,0-4.489
		l11.112-11.278l-7.788-7.904c-1.222-1.24-3.202-1.24-4.424,0l-18.901,19.183c-1.221,1.24-1.221,3.25,0,4.489L194.668,169.279z"/>
	<path style="fill:#5B5D6E;" d="M174.201,221.418V194.29c0-1.753,1.4-3.174,3.127-3.174h-20.001c-1.727,0-3.127,1.421-3.127,3.174
		v27.128c0,1.753,1.4,3.174,3.127,3.174h20.001C175.601,224.592,174.201,223.171,174.201,221.418z"/>
	<path style="fill:#5B5D6E;" d="M194.567,271.318c-1.222-1.24-1.222-3.25,0-4.489l18.341-18.614c1.01-1.025,1.246-2.616,0.533-3.872
		c-3.077-5.425-5.484-11.287-7.117-17.474c-0.356-1.348-1.571-2.277-2.946-2.277H185.76c1.806,7.837,4.843,15.19,8.909,21.835
		l-20.102,20.402c-1.221,1.24-1.221,3.25,0,4.489l18.901,19.182c1.222,1.24,3.202,1.24,4.424,0l7.788-7.904L194.567,271.318z"/>
</g>
<g>
	<path style="fill:#FFC850;" d="M83.579,215.466H58.698c-4.142,0-7.5-3.408-7.5-7.612c0-4.204,3.358-7.612,7.5-7.612h24.881
		c4.142,0,7.5,3.408,7.5,7.612C91.079,212.058,87.721,215.466,83.579,215.466z"/>
	<path style="fill:#FFC850;" d="M453.302,215.466h-24.881c-4.142,0-7.5-3.408-7.5-7.612c0-4.204,3.358-7.612,7.5-7.612h24.881
		c4.142,0,7.5,3.408,7.5,7.612C460.802,212.058,457.444,215.466,453.302,215.466z"/>
	<path style="fill:#FFC850;" d="M111.182,354.828c-2.929-2.973-2.929-7.792,0-10.764l17.594-17.856
		c2.929-2.972,7.678-2.973,10.606,0c2.929,2.973,2.929,7.792,0,10.764l-17.594,17.856
		C118.861,357.801,114.111,357.801,111.182,354.828z"/>
	<path style="fill:#FFC850;" d="M372.618,89.499c-2.929-2.972-2.929-7.792,0-10.764l17.594-17.856c2.929-2.972,7.678-2.972,10.606,0
		c2.929,2.972,2.929,7.792,0,10.764l-17.594,17.856C380.295,92.472,375.546,92.472,372.618,89.499z"/>
	<path style="fill:#FFC850;" d="M256,40.475c-4.142,0-7.5-3.408-7.5-7.612V7.612C248.5,3.408,251.858,0,256,0s7.5,3.408,7.5,7.612
		v25.252C263.5,37.067,260.143,40.475,256,40.475z"/>
	<path style="fill:#FFC850;" d="M390.21,354.828l-17.594-17.856c-2.929-2.972-2.929-7.792,0-10.764
		c2.929-2.972,7.678-2.972,10.606,0l17.594,17.856c2.929,2.972,2.929,7.792,0,10.764
		C397.888,357.801,393.139,357.801,390.21,354.828z"/>
	<path style="fill:#FFC850;" d="M128.777,89.499l-17.594-17.856c-2.929-2.972-2.929-7.792,0-10.764
		c2.929-2.972,7.678-2.972,10.606,0l17.594,17.856c2.929,2.972,2.929,7.792,0,10.764C136.454,92.472,131.705,92.472,128.777,89.499z
		"/>
</g>
<g>
	<path style="fill:#5B5D6E;" d="M259.508,107.711c0-1.753,1.4-3.174,3.128-3.174h-20.001c-1.727,0-3.128,1.421-3.128,3.174v28.854
		h15.559c2.468-0.056,4.441-2.453,4.441-4.959V107.711z"/>
	<path style="fill:#5B5D6E;" d="M259.508,307.996v-25.727c0-1.727-1.38-3.127-3.081-3.127h-16.92v28.855
		c0,1.753,1.4,3.174,3.128,3.174h20.001C260.909,311.171,259.508,309.749,259.508,307.996z"/>
</g>
<g>
</g>
<g>
</g>
<g>
</g>
<g>
</g>
<g>
</g>
<g>
</g>
<g>
</g>
<g>
</g>
<g>
</g>
<g>
</g>
<g>
</g>
<g>
</g>
<g>
</g>
<g>
</g>
<g>
</g>
</svg>
