<?xml version="1.0"?>
<svg xmlns="http://www.w3.org/2000/svg" xmlns:xlink="http://www.w3.org/1999/xlink" xmlns:svgjs="http://svgjs.com/svgjs" version="1.1" width="512" height="512" x="0" y="0" viewBox="0 0 467.78703 467" style="enable-background:new 0 0 512 512" xml:space="preserve" class=""><g><path xmlns="http://www.w3.org/2000/svg" d="m289.890625 64.394531h-112c-.140625 24.480469-11.257813 47.605469-30.289063 63.007813-44.421874 36.464844-61.125 96.914062-41.730468 151.015625 19.394531 54.097656 70.703125 90.167969 128.171875 90.101562 57.472656-.0625 108.699219-36.246093 127.972656-90.386719 19.273437-54.144531 2.433594-114.558593-42.070313-150.921874-18.941406-15.363282-29.976562-38.425782-30.054687-62.816407zm0 0" fill="#fdb62f" data-original="#fdb62f" style="" class=""/><path xmlns="http://www.w3.org/2000/svg" d="m319.945312 127.210938c-18.941406-15.363282-29.976562-38.425782-30.054687-62.816407h-32c.078125 24.386719 11.113281 47.445313 30.054687 62.808594 42.289063 34.523437 59.804688 91.003906 44.480469 143.394531-15.328125 52.394532-60.523437 90.527344-114.75 96.820313.230469 0 .445313.078125.679688.105469 59.960937 6.929687 117.3125-26.507813 140.816406-82.105469 23.503906-55.597657 7.535156-120.035157-39.21875-158.214844zm0 0" fill="#ff9f19" data-original="#ff9f19" style="" class=""/><g xmlns="http://www.w3.org/2000/svg" fill="#fdd384"><path d="m161.652344 169.304688-12.050782-10.511719c4.054688-4.621094 8.480469-8.902344 13.234376-12.800781l10.160156 12.359374c-4.078125 3.332032-7.875 6.996094-11.34375 10.953126zm0 0" fill="#fdd384" data-original="#fdd384" style="" class=""/><path d="m139.441406 292.707031c-9.363281-14.636719-15.171875-31.261719-16.957031-48.546875-2.511719-24.910156 3.3125-49.953125 16.566406-71.199218l13.542969 8.503906c-11.359375 18.230468-16.351562 39.710937-14.191406 61.082031 1.53125 14.785156 6.5 29.007813 14.511718 41.527344zm0 0" fill="#fdd384" data-original="#fdd384" style="" class=""/><path d="m58.53125 396.441406 45.25-45.25 11.3125 11.3125-45.25 45.25zm0 0" fill="#fdd384" data-original="#fdd384" style="" class=""/><path d="m164.042969 462.148438 16.566406-61.820313 15.453125 4.140625-16.566406 61.820312zm0 0" fill="#fdd384" data-original="#fdd384" style="" class=""/><path d="m271.722656 404.464844 15.453125-4.140625 16.5625 61.816406-15.453125 4.140625zm0 0" fill="#fdd384" data-original="#fdd384" style="" class=""/><path d="m352.6875 362.503906 11.3125-11.316406 45.25 45.25-11.3125 11.316406zm0 0" fill="#fdd384" data-original="#fdd384" style="" class=""/><path d="m58.527344 68.347656 11.316406-11.3125 45.246094 45.25-11.3125 11.3125zm0 0" fill="#fdd384" data-original="#fdd384" style="" class=""/><path d="m401.8125 285.671875 4.140625-15.453125 61.820313 16.5625-4.140626 15.453125zm0 0" fill="#fdd384" data-original="#fdd384" style="" class=""/><path d="m0 178 4.140625-15.453125 61.820313 16.5625-4.140626 15.453125zm0 0" fill="#fdd384" data-original="#fdd384" style="" class=""/><path d="m401.828125 179.113281 61.816406-16.5625 4.140625 15.453125-61.816406 16.566406zm0 0" fill="#fdd384" data-original="#fdd384" style="" class=""/><path d="m.00390625 286.789062 61.81640575-16.566406 4.140626 15.457032-61.816407 16.5625zm0 0" fill="#fdd384" data-original="#fdd384" style="" class=""/><path d="m352.683594 102.28125 45.25-45.25 11.316406 11.316406-45.25 45.246094zm0 0" fill="#fdd384" data-original="#fdd384" style="" class=""/></g><path xmlns="http://www.w3.org/2000/svg" d="m193.890625.394531h80c8.835937 0 16 7.164063 16 16v48h-112v-48c0-8.835937 7.164063-16 16-16zm0 0" fill="#c585e4" data-original="#87ced9" style="" class=""/><path xmlns="http://www.w3.org/2000/svg" d="m273.890625.394531h-32c8.835937 0 16 7.164063 16 16v48h32v-48c0-8.835937-7.164063-16-16-16zm0 0" fill="#a664c6" data-original="#71bbc7" style="" class=""/></g></svg>
