<svg id="Capa_1" enable-background="new 0 0 512 512" height="512" viewBox="0 0 512 512" width="512" xmlns="http://www.w3.org/2000/svg"><g><path d="m319.785 480.107v-63.785l-83.801-20.016 20.016 83.801z" fill="#cde1e6"/><path d="m192.215 480.107h63.785v-83.801l-63.785 20.016z" fill="#ebebf0"/><path d="m512 31.893h-256l-20.016 340.659 276.016-20.016z" fill="#04303e"/><path d="m0 31.893v320.643l256 20.016v-340.659z" fill="#09607d"/><path d="m512 352.536h-256l-20.016 31.893 20.016 31.893h256z" fill="#ebebf0"/><path d="m0 352.536h256v63.785h-256z" fill="#fff5f5"/><path d="m482 61.893h-226l-20.016 134.059 20.016 126.584h226z" fill="#ebebf0"/><path d="m30 61.893h226v260.644h-226z" fill="#fff5f5"/><path d="m60 180.952h35.901v30h-35.901z" fill="#6aa9ff"/><path d="m125.925 180.952h35.901v30h-35.901z" fill="#6aa9ff"/><path d="m60 120.904h101.826v30h-101.826z" fill="#9bb9c3"/><path d="m60 241h101.826v30h-101.826z" fill="#6aa9ff"/><path d="m350.174 180.952h101.826v30h-101.826z" fill="#515be0"/><g fill="#738c96"><path d="m350.174 120.904h101.826v30h-101.826z"/><path d="m350.174 241h35.901v30h-35.901z"/><path d="m416.099 241h35.901v30h-35.901z"/></g><path d="m244.96 202.239 11.04 81.509s59.004-40.687 59.004-90.877c0-11.009-2.84-21.56-7.272-31.325z" fill="#009986"/><path d="m204.268 161.546c-4.432 9.765-7.272 20.316-7.272 31.325 0 50.19 59.004 90.877 59.004 90.877v-81.509z" fill="#00cc76"/><path d="m307.732 161.546c-15.774-34.755-51.732-59.551-51.732-59.551l-11.04 53.373 11.04 57.91z" fill="#00cc76"/><path d="m256 101.995s-35.958 24.796-51.732 59.551l51.732 51.732z" fill="#a5e887"/></g></svg>