<?xml version="1.0"?>
<svg xmlns="http://www.w3.org/2000/svg" xmlns:xlink="http://www.w3.org/1999/xlink" xmlns:svgjs="http://svgjs.com/svgjs" version="1.1" width="512" height="512" x="0" y="0" viewBox="0 0 511.99959 511" style="enable-background:new 0 0 512 512" xml:space="preserve" class=""><g><path xmlns="http://www.w3.org/2000/svg" d="m510.972656 256.773438c0 141.101562-114.386718 255.488281-255.488281 255.488281-64.476563 0-123.394531-23.890625-168.335937-63.300781-6.089844-5.335938-11.921876-10.949219-17.46875-16.839844-43.203126-45.746094-69.679688-107.460938-69.679688-175.347656 0-141.097657 114.382812-255.484376 255.484375-255.484376s255.488281 114.386719 255.488281 255.484376zm0 0" fill="#39656e" data-original="#3d3d3d" style="" class=""/><path xmlns="http://www.w3.org/2000/svg" d="m199.488281 379.25c-23-21.160156-45.078125-43.238281-66.238281-66.238281-8.117188-8.824219-12.242188-18.640625-10.132812-24.171875 12.050781-31.566406 25.722656-60.40625 44.535156-82.339844 4.164062-4.855469 15.167968-1.664062 25.554687 7.433594 37.445313 32.792968 72.566407 67.914062 105.359375 105.359375 9.097656 10.386719 12.289063 21.390625 7.433594 25.554687-21.933594 18.8125-50.773438 32.488282-82.339844 44.535156-5.53125 2.109376-15.347656-2.011718-24.171875-10.132812zm0 0" fill="#7cbfbf" data-original="#7cbfbf" style="" class=""/><path xmlns="http://www.w3.org/2000/svg" d="m247.632812 264.863281c-7.632812-7.632812-15.851562-14.679687-24.640624-21.144531-4.882813-3.589844-11.867188-2.765625-16.226563 1.894531-19.699219 21.046875-37.65625 45.601563-55.226563 71.652344-3.078124 4.558594-2.890624 10.4375.4375 14.472656 4.335938 5.257813 8.90625 10.285157 13.703126 15.082031-11.042969-11.042968-21.847657-22.316406-32.433594-33.808593-8.113282-8.824219-12.242188-18.644531-10.125-24.171875 12.046875-31.566406 25.714844-60.410156 44.527344-82.339844 4.171874-4.859375 15.171874-1.667969 25.558593 7.433594 18.71875 16.394531 36.863281 33.371094 54.425781 50.929687zm0 0" fill="#5196a4" data-original="#5494a1" style="" class=""/><path xmlns="http://www.w3.org/2000/svg" d="m495.691406 126.839844c-.628906-.757813-1.257812-1.515625-1.894531-2.265625-5.71875-6.863281-11.53125-13.613281-17.453125-20.273438-21.390625-24.042969-44.101562-46.753906-68.144531-68.144531-6.660157-5.921875-13.410157-11.734375-20.273438-17.453125-.75-.636719-1.507812-1.265625-2.265625-1.890625-27.207031-22.523438-64.789062-21.574219-85.246094 1.933594-49.027343 56.359375-93 121.90625-135.753906 191.25-3.929687 6.378906-2.933594 15.085937 2.429688 21.621094 3.390625 4.117187 6.820312 8.210937 10.28125 12.253906 4.664062 5.457031 9.398437 10.851562 14.203125 16.175781 19.234375 21.351563 39.527343 41.644531 60.878906 60.878906 5.324219 4.804688 10.722656 9.539063 16.175781 14.203125 4.042969 3.460938 8.136719 6.890625 12.253906 10.28125 6.535157 5.363282 15.242188 6.359375 21.621094 2.429688 69.347656-42.753906 134.890625-86.726563 191.25-135.753906 23.507813-20.457032 24.457032-58.039063 1.9375-85.246094zm0 0" fill="#e6e6e6" data-original="#e6e6e6" style="" class=""/><path xmlns="http://www.w3.org/2000/svg" d="m424.332031 52.289062c6.644531 5.316407 12.945313 10.957032 18.917969 16.929688-11.347656-11.347656-23.042969-22.378906-35.050781-33.066406-6.660157-5.917969-13.410157-11.734375-20.273438-17.453125-.75-.632813-1.507812-1.261719-2.265625-1.890625-27.207031-22.519532-64.789062-21.570313-85.246094 1.9375-49.027343 56.359375-93 121.902344-135.753906 191.25-3.929687 6.378906-2.933594 15.085937 2.429688 21.621094 3.390625 4.117187 6.820312 8.207031 10.28125 12.253906 4.664062 5.453125 9.398437 10.851562 14.203125 16.175781 9.605469 10.671875 19.492187 21.078125 29.632812 31.214844-5.339843-5.335938-10.410156-10.925781-15.21875-16.796875-2.40625-2.929688-4.738281-5.921875-7.011719-8.988282-1.675781-2.261718-3.328124-4.574218-4.941406-6.917968-2.550781-3.714844-1.246094-10.125 3.269532-15.921875 49.050781-63.046875 98.132812-123.480469 148.894531-178.109375 21.179687-22.785156 50.085937-32.402344 65.511719-21.667969.433593.304687.859374.601563 1.285156.910156 3.882812 2.742188 7.65625 5.578125 11.335937 8.519531zm0 0" fill="#bdbfc0" data-original="#cccccc" style="" class=""/><path xmlns="http://www.w3.org/2000/svg" d="m492.410156 129.027344c.519532-1.492188.984375-2.976563 1.390625-4.453125-5.71875-6.863281-11.535156-13.613281-17.453125-20.273438.367188 4.601563-.5 10.214844-2.589844 16.242188-4.191406 12.027343-12.625 24.367187-23.769531 34.742187-51.550781 48.058594-111.484375 98.496094-194.328125 163.550782-1.175781.925781-2.257812 1.597656-3.207031 2.089843 5.324219 4.804688 10.722656 9.539063 16.175781 14.203125.113282-.082031.214844-.171875.328125-.253906 83.21875-65.359375 143.472657-116.074219 195.378907-164.4375 13.035156-12.15625 23.011718-26.863281 28.074218-41.410156zm-315.039062 114.84375c4.664062 5.457031 9.398437 10.851562 14.203125 16.175781.492187-.949219 1.164062-2.03125 2.089843-3.207031 65.050782-82.835938 115.488282-142.773438 163.542969-194.335938 10.382813-11.136718 22.722657-19.570312 34.75-23.765625 6.023438-2.085937 11.640625-2.953125 16.242188-2.585937-6.660157-5.917969-13.410157-11.734375-20.273438-17.453125-1.480469.40625-2.960937.871093-4.453125 1.390625-14.546875 5.0625-29.253906 15.035156-41.40625 28.074218-48.375 51.910157-99.089844 112.167969-164.4375 195.378907-.085937.113281-.175781.214843-.257812.328125zm0 0" fill="#b3b3b3" data-original="#b3b3b3" style="" class=""/><g xmlns="http://www.w3.org/2000/svg" fill="#e6e6e6"><path d="m169.140625 393.769531c0 6.753907-5.476563 12.230469-12.230469 12.230469s-12.230468-5.476562-12.230468-12.230469c0-6.753906 5.476562-12.230469 12.230468-12.230469s12.230469 5.476563 12.230469 12.230469zm0 0" fill="#e6e6e6" data-original="#e6e6e6" style="" class=""/><path d="m137.96875 350.285156c0 6.753906-5.472656 12.230469-12.226562 12.230469-6.757813 0-12.230469-5.476563-12.230469-12.230469s5.472656-12.230468 12.230469-12.230468c6.753906 0 12.226562 5.476562 12.226562 12.230468zm0 0" fill="#e6e6e6" data-original="#e6e6e6" style="" class=""/><path d="m122.570312 400.90625c0 6.753906-5.472656 12.226562-12.230468 12.226562-6.753906 0-12.226563-5.472656-12.226563-12.226562 0-6.757812 5.472657-12.230469 12.226563-12.230469 6.757812 0 12.230468 5.472657 12.230468 12.230469zm0 0" fill="#e6e6e6" data-original="#e6e6e6" style="" class=""/><path d="m133.351562 459.285156c0 6.753906-5.476562 12.230469-12.230468 12.230469s-12.230469-5.476563-12.230469-12.230469 5.476563-12.230468 12.230469-12.230468 12.230468 5.476562 12.230468 12.230468zm0 0" fill="#e6e6e6" data-original="#e6e6e6" style="" class=""/><path d="m162.65625 436.125c0 6.753906-5.472656 12.230469-12.230469 12.230469-6.753906 0-12.226562-5.476563-12.226562-12.230469s5.472656-12.230469 12.226562-12.230469c6.757813 0 12.230469 5.476563 12.230469 12.230469zm0 0" fill="#e6e6e6" data-original="#e6e6e6" style="" class=""/><path d="m196.066406 472.929688c0 6.753906-5.476562 12.230468-12.230468 12.230468-6.753907 0-12.230469-5.476562-12.230469-12.230468 0-6.753907 5.476562-12.230469 12.230469-12.230469 6.753906 0 12.230468 5.476562 12.230468 12.230469zm0 0" fill="#e6e6e6" data-original="#e6e6e6" style="" class=""/><path d="m89.597656 441.621094c0 2.753906-.90625 5.296875-2.449218 7.339844-6.089844-5.335938-11.921876-10.949219-17.46875-16.839844 2.097656-1.710938 4.777343-2.730469 7.695312-2.730469 6.746094 0 12.222656 5.472656 12.222656 12.230469zm0 0" fill="#e6e6e6" data-original="#e6e6e6" style="" class=""/></g><path xmlns="http://www.w3.org/2000/svg" d="m293.203125 240.464844c-8.507813-8.507813-29.316406 15.257812-45.769531-1.195313-10.546875-10.546875-5.34375-23.765625 3.445312-32.554687 3.726563-3.726563 14.695313-13.289063 20.175782-7.804688 1.898437 1.898438 4.503906 7.03125 1.410156 10.125-2.53125 2.53125-6.542969 1.195313-12.304688 6.960938-4.992187 4.992187-4.992187 9.070312-2.8125 11.25 7.03125 7.03125 27.984375-16.589844 45.699219 1.125 10.125 10.125 8.226563 22.992187-1.96875 33.1875-9.207031 9.210937-21.441406 12.445312-26.085937 7.804687-2.386719-2.390625-3.796876-8.015625-1.125-10.6875 3.308593-3.304687 10.617187-.210937 17.15625-6.75 3.234374-3.234375 5.554687-8.085937 2.179687-11.460937zm0 0" fill="#bdbfc0" data-original="#cccccc" style="" class=""/><path xmlns="http://www.w3.org/2000/svg" d="m318.863281 233.363281c-.210937-.210937-.421875-.5625-.628906-.914062l-29.8125-55.964844c-1.6875-3.234375.28125-7.59375 3.511719-10.828125 3.238281-3.234375 7.59375-5.203125 10.832031-3.515625l56.035156 29.742187c.351563.210938.703125.421876.914063.632813 2.601562 2.597656.492187 8.507813-2.53125 11.527344-1.757813 1.757812-3.726563 2.601562-5.625 1.546875l-11.179688-6.398438-14.835937 14.835938 6.398437 11.179687c1.054688 1.898438.210938 3.867188-1.546875 5.625-3.023437 3.027344-8.929687 5.132813-11.53125 2.53125zm10.757813-40.285156-23.976563-13.710937 13.710938 23.976562zm0 0" fill="#bdbfc0" data-original="#cccccc" style="" class=""/><path xmlns="http://www.w3.org/2000/svg" d="m376.585938 184.644531c-2.390626 2.390625-5.902344 3.65625-8.152344 1.402344l-44.71875-44.714844c-2.320313-2.320312-.5625-6.046875 2.179687-8.789062 2.742188-2.742188 6.46875-4.5 8.789063-2.179688l38.53125 38.53125 16.027344-16.03125c2.109374-2.109375 5.554687-.773437 7.945312 1.617188s3.726562 5.835937 1.617188 7.945312zm0 0" fill="#bdbfc0" data-original="#cccccc" style="" class=""/><path xmlns="http://www.w3.org/2000/svg" d="m382.28125 76.15625c2.320312-2.320312 5.835938-.773438 8.15625 1.546875 2.671875 2.671875 3.796875 6.1875 1.6875 8.296875l-9.703125 9.703125 38.175781 38.175781c2.25 2.25.632813 6.121094-2.105468 8.859375-2.742188 2.742188-6.609376 4.363281-8.863282 2.109375l-38.175781-38.175781-9.703125 9.703125c-2.109375 2.109375-5.625.984375-8.296875-1.6875-2.320313-2.320312-3.867187-5.835938-1.546875-8.15625zm0 0" fill="#bdbfc0" data-original="#cccccc" style="" class=""/></g></svg>
