<?xml version="1.0"?>
<svg xmlns="http://www.w3.org/2000/svg" xmlns:xlink="http://www.w3.org/1999/xlink" xmlns:svgjs="http://svgjs.com/svgjs" version="1.1" width="512" height="512" x="0" y="0" viewBox="0 0 512 512" style="enable-background:new 0 0 512 512" xml:space="preserve" class=""><g><g xmlns="http://www.w3.org/2000/svg"><path d="m509.188 247.27c-4.571-6.387-114.526-156.27-253.188-156.27s-248.617 149.883-253.187 156.27c-3.75 5.215-3.75 12.246 0 17.461 4.57 6.386 114.525 156.269 253.187 156.269s248.617-149.883 253.188-156.27c3.75-5.214 3.75-12.246 0-17.46z" fill="#f0f7ff" data-original="#f0f7ff" style=""/><path d="m509.188 264.73c3.75-5.215 3.75-12.246 0-17.461-4.571-6.386-114.526-156.269-253.188-156.269v330c138.662 0 248.617-149.883 253.188-156.27z" fill="#dfe7f4" data-original="#dfe7f4" style=""/><circle cx="256" cy="256" fill="#e48ae2" r="105" data-original="#99ddff" style="" class=""/><path d="m361 256c0-57.891-47.109-105-105-105v210c57.891 0 105-47.109 105-105z" fill="#da10cb" data-original="#80bfff" style="" class=""/><g><path d="m15 91c-8.291 0-15-6.709-15-15v-61c0-8.291 6.709-15 15-15h60c8.291 0 15 6.709 15 15s-6.709 15-15 15h-45v46c0 8.291-6.709 15-15 15z" fill="#000000" data-original="#3b4a51" style="" class=""/></g><g><path d="m75 512h-60c-8.291 0-15-6.709-15-15v-61c0-8.291 6.709-15 15-15s15 6.709 15 15v46h45c8.291 0 15 6.709 15 15s-6.709 15-15 15z" fill="#000000" data-original="#3b4a51" style="" class=""/></g><g><path d="m497 91c-8.291 0-15-6.709-15-15v-46h-46c-8.291 0-15-6.709-15-15s6.709-15 15-15h61c8.291 0 15 6.709 15 15v61c0 8.291-6.709 15-15 15z" fill="#293939" data-original="#293939" style="" class=""/></g><g><path d="m497 512h-61c-8.291 0-15-6.709-15-15s6.709-15 15-15h46v-46c0-8.291 6.709-15 15-15s15 6.709 15 15v61c0 8.291-6.709 15-15 15z" fill="#293939" data-original="#293939" style="" class=""/></g><circle cx="256" cy="256" fill="#000000" r="45" data-original="#3b4a51" style="" class=""/><path d="m301 256c0-24.814-20.186-45-45-45v90c24.814 0 45-20.186 45-45z" fill="#293939" data-original="#293939" style="" class=""/></g></g></svg>
